<svg width="146" height="32" viewBox="0 0 146 32" fill="none" xmlns="http://www.w3.org/2000/svg">
<path d="M33.0566 26.2059L35.7846 6.70879C37.3042 6.55749 39.4229 6.48184 42.1405 6.48184C44.5228 6.48184 46.1725 6.86009 47.0898 7.61316C48.0071 8.36622 48.3288 9.72448 48.0447 11.6811C47.8394 13.0943 47.4355 14.15 46.8365 14.8446C46.2375 15.5427 45.3442 15.9484 44.1634 16.0585L44.136 16.1994C46.7236 16.4058 47.7743 18.1595 47.2849 21.4571C46.9837 23.4172 46.3471 24.7342 45.3716 25.4116C44.3961 26.089 42.784 26.4294 40.5353 26.4294C37.2563 26.4328 34.7646 26.3572 33.0566 26.2059ZM36.1234 24.0052L40.1177 24.0327C41.6545 24.0327 42.7327 23.8126 43.3522 23.369C43.9717 22.9254 44.3756 22.0555 44.5604 20.7556C44.7487 19.363 44.6015 18.4242 44.1257 17.9428C43.6465 17.4614 42.6505 17.2138 41.1308 17.1932H37.0818L36.1234 24.0052ZM37.3898 15.0166H41.2712C42.6197 15.0166 43.5918 14.7896 44.1839 14.3391C44.776 13.8887 45.1628 13.0393 45.3511 11.7945C45.5188 10.6082 45.3682 9.82764 44.8993 9.44939C44.4303 9.07458 43.4651 8.88545 42.0036 8.88545H38.2352L37.3898 15.0166Z" fill="#47A138"/>
<path d="M60.2845 12.417H63.1253C62.1122 16.9009 60.791 20.6972 59.1584 23.8057C57.6969 26.5945 56.2457 28.5717 54.8115 29.7408C53.3774 30.91 51.6661 31.663 49.6775 32L49.1709 30.0503C50.3723 29.7683 51.4196 29.3454 52.3198 28.778C53.22 28.2141 54.0825 27.3544 54.9074 26.2059H53.641C53.2097 26.2059 52.8435 26.089 52.5457 25.8517C52.2445 25.6179 52.0563 25.2912 51.9844 24.8752L49.342 12.4135H52.2137L54.2947 23.5753C54.3495 23.8951 54.5377 24.0568 54.856 24.0568H56.2354C56.3107 23.9261 56.4134 23.7301 56.5434 23.4791C56.6735 23.2246 56.7591 23.0595 56.7967 22.9839C58.4465 19.5384 59.6102 16.0172 60.2845 12.417Z" fill="#47A138"/>
<path d="M68.7213 14.5351L67.6226 22.2789C67.5302 22.9392 67.5884 23.3862 67.804 23.62C68.0197 23.8573 68.4544 23.9742 69.1115 23.9742H71.1652L71.2781 26.0924C70.4532 26.3365 69.3853 26.4603 68.071 26.4603C66.8525 26.4603 65.9763 26.1199 65.4424 25.4425C64.9084 24.7651 64.7236 23.7954 64.8947 22.5334L66.0208 14.5351H63.5188L63.7721 12.5579L66.3323 12.4169L66.9244 8.37651H69.5976L69.0362 12.4169H73.2564L72.9758 14.5351H68.7213Z" fill="#47A138"/>
<path d="M84.5585 23.9192L84.7262 25.7554C83.3947 26.2816 81.5088 26.5463 79.0718 26.5463C76.7273 26.5463 75.1049 25.9308 74.2047 24.6963C73.3045 23.4619 73.0239 21.5465 73.3593 18.9469C73.7153 16.2923 74.4409 14.4767 75.5396 13.507C76.6349 12.5373 78.4421 12.0525 80.9543 12.0525C83.0935 12.0525 84.5448 12.4307 85.3149 13.1838C86.085 13.9368 86.3657 15.0475 86.1603 16.5193C85.9344 17.8569 85.4107 18.8231 84.5858 19.4146C83.761 20.0095 82.4946 20.3705 80.79 20.5012L76.0359 20.9242C76.0153 22.224 76.2892 23.1043 76.8505 23.565C77.4118 24.0258 78.2949 24.2562 79.4928 24.2562C80.7695 24.2562 82.4569 24.1462 84.5585 23.9192ZM76.2036 18.8885L80.79 18.4655C81.6526 18.4105 82.2823 18.2248 82.676 17.9153C83.0696 17.6059 83.3229 17.0626 83.4358 16.2889C83.5488 15.4051 83.4016 14.8584 83.0011 14.6486C82.5972 14.4423 81.7792 14.3392 80.5402 14.3392C79.1163 14.3392 78.1066 14.6349 77.5179 15.2298C76.9224 15.8212 76.4843 17.0419 76.2036 18.8885Z" fill="#47A138"/>
<path d="M92.4613 6.42682L91.7015 12.135C91.5338 13.3798 91.2873 14.432 90.969 15.2985C91.8692 14.3942 92.8583 13.6308 93.9365 13.0084C95.0147 12.386 96.0141 12.0765 96.9314 12.0765C98.0198 12.0765 98.855 12.2794 99.4334 12.6851C100.015 13.0909 100.426 13.844 100.672 14.9443C100.915 16.0447 100.878 17.5577 100.559 19.4799C100.354 21.0239 100.063 22.2824 99.6867 23.2521C99.3102 24.2218 98.8242 24.9439 98.2252 25.415C97.6262 25.8861 97.017 26.1956 96.3974 26.3469C95.7779 26.4982 94.9804 26.5738 94.0084 26.5738C91.722 26.5738 89.4151 26.2334 87.0876 25.556L89.7608 6.42682H92.4613ZM90.9142 17.4477L89.9867 24.2287C91.3352 24.2837 92.3381 24.3146 92.9953 24.3146C94.7751 24.3146 95.9491 24.0292 96.5104 23.4515C97.0717 22.8773 97.503 21.4881 97.8042 19.2839C98.0677 17.231 98.0951 15.9106 97.8898 15.326C97.6844 14.7415 97.1504 14.4492 96.2879 14.4492C94.9565 14.4526 93.1664 15.4498 90.9142 17.4477Z" fill="#47A138"/>
<path d="M114.12 26.2059H111.981L112.094 23.6613C110.444 25.5835 108.476 26.5429 106.186 26.5429C104.516 26.5429 103.394 25.9962 102.812 24.9027C102.23 23.8092 102.127 21.887 102.504 19.1395C102.709 17.6128 103 16.3645 103.376 15.3948C103.753 14.4251 104.249 13.703 104.869 13.2319C105.488 12.7608 106.125 12.4445 106.782 12.2863C107.439 12.1281 108.281 12.0456 109.315 12.0456C111.546 12.0456 113.788 12.2897 116.037 12.7815L114.12 26.2059ZM112.067 21.2336L113.052 14.3942C111.327 14.3564 110.362 14.3392 110.157 14.3392C109.181 14.3392 108.442 14.3873 107.935 14.4802C107.429 14.573 106.984 14.8137 106.601 15.2023C106.217 15.5874 105.933 16.0826 105.755 16.6843C105.577 17.2861 105.403 18.1733 105.235 19.339C104.971 21.3918 104.941 22.7123 105.136 23.2934C105.334 23.878 105.872 24.1702 106.755 24.1702C107.617 24.1702 108.459 23.9295 109.287 23.4481C110.105 22.9736 111.036 22.2343 112.067 21.2336Z" fill="#47A138"/>
<path d="M121.209 12.417L121.069 15.3845C123.543 13.1632 125.71 12.049 127.565 12.049C128.729 12.049 129.608 12.3826 130.207 13.0531C130.806 13.7237 131.012 14.6796 130.827 15.921L129.365 26.2059H126.665L127.986 16.5984C128.099 15.7318 128.065 15.1438 127.887 14.8309C127.709 14.5214 127.318 14.3632 126.719 14.3632C125.949 14.3632 125.148 14.6005 124.313 15.0682C123.478 15.5393 122.386 16.313 121.038 17.3858L119.829 26.2025H117.102L119.042 12.4135H121.209V12.417Z" fill="#47A138"/>
<path d="M142.81 12.4169H145.596C144.809 14.8859 143.289 16.9284 141.04 18.548C141.321 18.9813 141.602 19.528 141.886 20.1883L144.559 26.2059H141.632L138.99 19.8478C138.145 20.3017 137.06 20.8278 135.728 21.4296L135.026 26.2059H132.326L135.081 6.42682H137.809L136.57 15.694C136.402 16.8253 136.101 17.9531 135.67 19.0845C137.45 18.2351 138.993 17.2448 140.297 16.1032C141.595 14.965 142.433 13.7374 142.81 12.4169Z" fill="#47A138"/>
<path d="M20.0741 6.53688H6.59888V20.0748H20.0741V6.53688Z" fill="#47A138"/>
<path d="M6.55451 0H0V6.49216H6.55451V0Z" fill="#47A138"/>
<path d="M26.4885 0H20.0264V6.49216H26.4885V0Z" fill="#47A138"/>
</svg>
