<svg width="31" height="30" viewBox="0 0 31 30" fill="none" xmlns="http://www.w3.org/2000/svg">
<path d="M0.600088 29.6L2.72009 21.68C1.52009 19.51 0.890088 17.08 0.890088 14.62C0.890088 6.56 7.45009 0 15.5001 0C23.5501 0 30.1201 6.56 30.1201 14.62C30.1201 22.68 23.5601 29.24 15.5001 29.24C13.0801 29.24 10.6901 28.63 8.55009 27.47L0.590088 29.6H0.600088ZM8.95009 24.5L9.45009 24.8C11.2901 25.9 13.3801 26.48 15.5001 26.48C22.0401 26.48 27.3501 21.16 27.3501 14.63C27.3501 8.1 22.0401 2.77 15.5001 2.77C8.96009 2.77 3.65009 8.08 3.65009 14.62C3.65009 16.78 4.25009 18.9 5.38009 20.77L5.69009 21.27L4.51009 25.69L8.95009 24.5Z" fill="white"/>
<path fill-rule="evenodd" clip-rule="evenodd" d="M20.9401 16.65C20.3401 16.29 19.5601 15.89 18.8501 16.18C18.3101 16.4 17.9601 17.25 17.6101 17.69C17.4301 17.91 17.2101 17.95 16.9401 17.84C14.9001 17.03 13.3401 15.66 12.2101 13.79C12.0201 13.5 12.0501 13.27 12.2801 13C12.6201 12.6 13.0501 12.14 13.1401 11.6C13.2301 11.06 12.9801 10.43 12.7601 9.95001C12.4701 9.34001 12.1601 8.46001 11.5401 8.11001C10.9701 7.79001 10.2301 7.97001 9.73013 8.38001C8.86013 9.09001 8.44013 10.2 8.45013 11.3C8.45013 11.61 8.49013 11.92 8.56013 12.23C8.74013 12.96 9.07013 13.63 9.45013 14.28C9.73013 14.77 10.0401 15.24 10.3801 15.69C11.4701 17.17 12.8301 18.46 14.4001 19.42C15.1901 19.9 16.0301 20.32 16.9101 20.61C17.8901 20.93 18.7701 21.27 19.8301 21.07C20.9401 20.86 22.0401 20.17 22.4801 19.1C22.6101 18.78 22.6801 18.43 22.6001 18.1C22.4501 17.41 21.5101 17 20.9501 16.66L20.9401 16.65Z" fill="white"/>
</svg>
